<svg xmlns="http://www.w3.org/2000/svg" xmlns:xlink="http://www.w3.org/1999/xlink" width="245" height="118" viewBox="0 0 245 118">
    <defs>
        <path id="prefix__a" d="M0 0.117L17.008 0.117 17.008 17.048 0 17.048z"/>
        <path id="prefix__c" d="M4.498.497L3.345 2.672c-.087.164-.242.278-.421.31L.53 3.409c-.473.085-.66.68-.323 1.031L1.88 6.185c.13.136.19.326.165.515L1.71 9.112c-.067.483.416.848.845.638l2.209-1.08c.162-.08.35-.08.512 0l2.209 1.08c.429.21.912-.155.845-.638L7.997 6.7c-.026-.189.035-.38.165-.515L9.834 4.44c.336-.351.15-.946-.323-1.03l-2.393-.428c-.179-.032-.334-.146-.42-.31L5.543.497C5.43.284 5.226.177 5.02.177c-.205 0-.41.107-.523.32z"/>
        <path id="prefix__e" d="M2.833.096C1.336.126.155 1.706.195 3.628c.04 1.921 1.287 3.455 2.783 3.425 1.497-.03 2.678-1.611 2.638-3.532C5.576 1.618 4.353.095 2.876.095h-.043z"/>
        <path id="prefix__g" d="M2.833.096C1.336.126.155 1.706.195 3.628c.04 1.921 1.287 3.455 2.783 3.425 1.497-.03 2.678-1.611 2.638-3.532C5.576 1.618 4.353.095 2.876.095h-.043"/>
        <path id="prefix__i" d="M0.159 0.073L57.511 0.073 57.511 57.552 0.159 57.552z"/>
        <path id="prefix__k" d="M0 117.111L244.159 117.111 244.159 0.207 0 0.207z"/>
    </defs>
    <g fill="none" fill-rule="evenodd">
        <path fill="#EEC65C" d="M10.777 116.393L84.78 116.393 84.78 71.848 10.777 71.848z"/>
        <path fill="#B08D3D" d="M10.777 71.848L84.78 71.848 76.607 64.663 19.087 64.663z"/>
        <path fill="#E3E5E6" d="M98.431 116.393L172.434 116.393 172.434 95.557 98.431 95.557z"/>
        <path fill="#AAA" d="M98.431 95.557L172.434 95.557 164.261 88.372 98.431 88.372z"/>
        <path fill="#981C1F" d="M14.344 21.277c-.161-4.86-1.396-9.745-3.665-14.526 2.338.378 4.675.766 7.015 1.14 4.137 11.087 2.752 20.662.68 27.005-2.511 7.694-6.511 12.377-6.68 12.572l-4.567-3.91c.034-.04 3.376-3.953 5.518-10.515 1.259-3.854 1.83-7.813 1.7-11.766"/>
        <path fill="#981C1F" d="M16.6 21.163c-.16-4.682-1.254-9.374-3.247-13.977l1.752.287c1.839 4.506 2.85 9.096 3.003 13.68.145 4.389-.488 8.779-1.882 13.048-2.373 7.27-6.088 11.62-6.245 11.8l-1.142-.977c.037-.042 3.701-4.344 5.974-11.346 1.33-4.098 1.932-8.308 1.788-12.515"/>
        <path fill="#808181" d="M28.88 31.188c-.289 0-.582-.055-.865-.171-.844-.347-20.638-8.635-18.049-21.089.254-1.22 1.455-2.006 2.682-1.754 1.227.253 2.016 1.448 1.762 2.67-1.52 7.308 10.557 14.026 15.338 15.998 1.157.477 1.707 1.798 1.229 2.95-.362.87-1.207 1.396-2.097 1.396M63.818 68.97h-2.726c-1.035 0-1.939-.696-2.197-1.694l-3.62-13.985c-.313-1.208.418-2.44 1.631-2.75 1.214-.312 2.45.415 2.763 1.623l3.182 12.29h.967c1.253 0 2.27 1.011 2.27 2.258 0 1.248-1.017 2.259-2.27 2.259M34.924 68.97h-2.726c-1.253 0-2.269-1.01-2.269-2.258 0-1.247 1.016-2.258 2.27-2.258h.363c.054-3.194.8-8.77 4.825-13.235.838-.928 2.272-1.005 3.205-.172.932.833 1.01 2.26.173 3.189-4.46 4.946-3.6 12.112-3.59 12.184.081.643-.118 1.295-.548 1.781-.431.487-1.051.77-1.703.77"/>
        <path fill="#98509E" d="M78.413 28.17c0 15.445-12.578 27.965-28.094 27.965-15.517 0-28.095-12.52-28.095-27.964C22.224 12.727 34.802.207 50.32.207c15.516 0 28.094 12.52 28.094 27.964"/>
        <path fill="#FFF" d="M59.872 27.145c-.609 2.011-2.74 3.151-4.761 2.545-2.021-.606-3.165-2.729-2.556-4.74.61-2.012 2.74-3.15 4.761-2.543 2.022.607 3.166 2.726 2.556 4.738"/>
        <path fill="#201D1E" d="M58.174 26.606c-.351 1.16-1.579 1.816-2.743 1.467-1.165-.35-1.825-1.571-1.473-2.732.351-1.158 1.579-1.814 2.744-1.464 1.164.35 1.823 1.57 1.472 2.73"/>
        <path fill="#FFF" d="M36.874 24.068c-.61 2.011-2.741 3.151-4.762 2.545-2.021-.607-3.165-2.729-2.555-4.74.609-2.012 2.74-3.15 4.76-2.543 2.022.606 3.166 2.726 2.557 4.738"/>
        <path fill="#201D1E" d="M36.546 23.602c-.352 1.16-1.58 1.817-2.744 1.467-1.165-.35-1.824-1.571-1.472-2.732.35-1.158 1.578-1.813 2.743-1.464 1.164.35 1.823 1.571 1.473 2.73"/>
        <path fill="#808181" d="M64.898 49.778c-1.058 0-2.003-.738-2.22-1.81-.35-1.735.343-3.254 1.9-4.167.94-.551 2.076-.818 3.175-1.077 2.682-.63 2.659-.864 2.62-1.25-.357-3.509-4.445-5.547-4.487-5.567-1.13-.537-1.609-1.886-1.068-3.011.54-1.126 1.895-1.602 3.025-1.064.263.124 6.428 3.124 7.044 9.186.204 2.008-.613 3.696-2.3 4.754-1.165.73-2.56 1.059-3.79 1.348-.503.118-1.2.282-1.626.44-.02 1.037-.758 1.96-1.822 2.173-.151.03-.302.045-.45.045"/>
        <path fill="#AF3F3E" d="M12.974 37.564l.583-.475-.583.475z"/>
        <path fill="#808181" d="M9.846 10.278c-.359 1.991.972 3.895 2.973 4.252 2 .357 3.913-.968 4.272-2.96.358-1.99-.973-3.894-2.973-4.251-2-.357-3.913.967-4.272 2.959"/>
        <path fill="#EE3A39" d="M8.058 6.337c.215.033.43.065.644.099 2.1.328 4.195.675 6.292 1.019-6.442 6.892-9.15 15.008-8.041 24.13.86 7.08 3.796 12.172 3.826 12.223l-2.6 1.513-2.597 1.52c-.144-.243-3.523-6.039-4.578-14.284C.12 25.658.762 15.814 8.058 6.337"/>
        <path fill="#EE3A39" d="M10.624 6.743l1.73.28c-3.26 3.773-5.543 7.926-6.78 12.374-1.113 3.999-1.397 8.248-.843 12.63.947 7.487 4.053 12.84 4.097 12.914l-1.299.76c-.133-.226-3.287-5.635-4.285-13.429-.587-4.587-.295-9.042.868-13.24 1.22-4.404 3.41-8.525 6.512-12.29"/>
        <g transform="translate(0 36.92)">
            <mask id="prefix__b" fill="#fff">
                <use xlink:href="#prefix__a"/>
            </mask>
            <path fill="#EEC65C" d="M16.95 9.57c-.549 4.643-4.774 7.965-9.438 7.42C2.848 16.444-.49 12.238.059 7.595.607 2.952 4.832-.37 9.497.175c4.664.546 8 4.752 7.452 9.395" mask="url(#prefix__b)"/>
        </g>
        <path fill="#B08D3D" d="M7.84 48.97l-2.29.774c-.443.15-.877-.252-.757-.704l.599-2.256c.047-.176.008-.364-.104-.508l-1.445-1.852c-.29-.373-.041-.918.432-.944l2.397-.132c.18-.01.344-.1.448-.246l1.376-1.937c.269-.379.852-.31 1.026.12l.888 2.201c.067.166.206.292.378.343l2.3.682c.455.134.571.722.201 1.017l-1.836 1.468c-.143.115-.224.289-.22.471l.057 2.333c.012.467-.503.758-.9.51l-2.048-1.28c-.15-.095-.334-.116-.502-.06"/>
        <path fill="#98509E" d="M61.5 20.78c-.589.496-10.304 4.383-10.304 4.383v-3.447l10.304-.937z"/>
        <path fill="#828382" d="M129.278 90.986h-2.508c-1.14 0-2.066-.921-2.066-2.057s.925-2.057 2.066-2.057h1.068l-.246-12.023c-.024-1.136.882-2.075 2.023-2.099 1.143-.024 2.085.88 2.108 2.015l.275 13.394c.03 1.449-1.082 2.687-2.532 2.818-.063.006-.125.009-.188.009zM108.895 63.66c-.226 0-.452-.006-.678-.019-3.732-.203-7.363-2.106-9.251-4.848-.645-.936-.405-2.217.536-2.859.941-.642 2.227-.403 2.872.534 1.153 1.673 3.648 2.934 6.07 3.066 1.891.104 3.853-.474 5.384-1.584.922-.669 2.215-.467 2.887.452.671.918.468 2.204-.454 2.873-2.138 1.55-4.73 2.385-7.366 2.385"/>
        <path fill="#0BA7DC" d="M107.53 50.084c0 15.667 12.76 28.368 28.5 28.368s28.499-12.701 28.499-28.368c0-15.667-12.76-28.368-28.5-28.368s-28.5 12.7-28.5 28.368"/>
        <path fill="#FFF" d="M116.263 47.197c0 2.239 1.823 4.054 4.072 4.054 2.25 0 4.073-1.815 4.073-4.054 0-2.238-1.824-4.053-4.073-4.053-2.249 0-4.072 1.815-4.072 4.053M138.895 47.197c0 2.239 1.824 4.054 4.073 4.054 2.249 0 4.072-1.815 4.072-4.054 0-2.238-1.823-4.053-4.072-4.053-2.25 0-4.073 1.815-4.073 4.053"/>
        <path fill="#000" d="M116.68 46.512c0 .911.742 1.65 1.657 1.65.916 0 1.658-.739 1.658-1.65 0-.912-.742-1.65-1.658-1.65-.915 0-1.658.738-1.658 1.65M139.204 47.567c0 .91.742 1.65 1.657 1.65.916 0 1.658-.74 1.658-1.65 0-.912-.742-1.65-1.658-1.65-.915 0-1.657.738-1.657 1.65"/>
        <path fill="#981C1F" d="M134.653 57.911s-3.48 2.792-6.651 3.76c-3.172.969-10.2 1.974-14.56.861-4.36-1.111-10.197-4.901-10.197-4.901l5.332 10.57 3.315.896s6.848 1.507 16.47 0c9.622-1.506 6.199-10.08 6.199-10.08l.092-1.106z"/>
        <path fill="#EE3A39" d="M97.893 61.093l13.674 18.405 1.766-1.604 1.814-1.656.004-.005 1.21-1.095-13.116-17.507-1.312.802-.28.17-2.086 1.28-1.634 1.003c-.071.044-.09.14-.04.207"/>
        <path fill="#EE3A39" d="M99.567 59.883L113.333 77.894 115.146 76.238 101.654 58.602zM134.653 57.911L120.814 77.681 123.674 78.063 125.839 79.226 125.845 79.229 126.523 80.761 139.604 61.939 138.413 60.967 138.161 60.76 136.262 59.217z"/>
        <path fill="#EE3A39" d="M136.262 59.217L123.673 78.063 125.839 79.226 138.161 60.761z"/>
        <path fill="#828382" d="M146.563 66.61c-3.795 0-7.153-2.692-8.73-5.31-.588-.973-.27-2.236.708-2.821.979-.584 2.248-.269 2.835.705 1.215 2.016 3.564 3.436 5.456 3.303 2.616-.185 4.425-1.72 6.047-5.133.488-1.027 1.72-1.465 2.752-.98 1.031.487 1.472 1.713.984 2.74-3.35 7.043-7.972 7.369-9.492 7.476-.187.013-.374.02-.56.02M146.07 90.637h-2.267c-1.14 0-2.066-.92-2.066-2.056 0-1.136.925-2.057 2.066-2.057h.788l-.492-11.992c-.047-1.135.84-2.093 1.98-2.14 1.142-.048 2.102.837 2.149 1.972l.549 13.392c.06 1.455-1.034 2.716-2.489 2.87-.072.008-.145.011-.218.011z"/>
        <path fill="#828382" d="M134.595 58.975c0 1.703 1.388 3.085 3.1 3.085 1.711 0 3.099-1.382 3.099-3.085 0-1.704-1.388-3.085-3.1-3.085-1.711 0-3.099 1.381-3.099 3.085M97.571 58.602c0 1.704 1.388 3.085 3.1 3.085 1.71 0 3.098-1.381 3.098-3.085 0-1.703-1.387-3.084-3.099-3.084-1.711 0-3.099 1.38-3.099 3.084"/>
        <path fill="#E3E5E6" d="M109.544 81.587c0 4.735 3.856 8.573 8.613 8.573s8.613-3.838 8.613-8.573c0-4.736-3.856-8.574-8.613-8.574s-8.613 3.838-8.613 8.574"/>
        <path fill="#AAA" d="M118.413 85.152l2.212 1.048c.429.203.912-.15.845-.619l-.334-2.34c-.026-.183.035-.368.165-.5l1.673-1.692c.337-.34.15-.918-.323-1l-2.395-.415c-.179-.03-.334-.141-.421-.3l-1.155-2.11c-.226-.413-.82-.413-1.046 0l-1.155 2.11c-.087.159-.242.27-.421.3l-2.395.415c-.474.082-.66.66-.323 1l1.673 1.693c.13.131.191.316.165.5l-.334 2.339c-.067.468.417.822.846.619l2.211-1.048c.162-.077.35-.077.512 0"/>
        <g transform="translate(112.8 76.877)">
            <mask id="prefix__d" fill="#fff">
                <use xlink:href="#prefix__c"/>
            </mask>
            <path fill="#AAA" d="M-1.41 15.202L78.074 15.202 78.074 -2.692 -1.41 -2.692z" mask="url(#prefix__d)"/>
        </g>
        <g transform="translate(127.17 53.167)">
            <mask id="prefix__f" fill="#fff">
                <use xlink:href="#prefix__e"/>
            </mask>
            <path fill="#3D3D3D" d="M7.537 10.614L-4.978 10.862 -5.233 -1.305 7.282 -1.553z" mask="url(#prefix__f)"/>
            <g>
                <mask id="prefix__h" fill="#fff">
                    <use xlink:href="#prefix__g"/>
                </mask>
                <path fill="#05637C" d="M-2.63 9.628c.063 2.953 2.575 5.299 5.613 5.238 3.037-.06 5.45-2.503 5.388-5.456-.062-2.953-2.575-5.298-5.612-5.238-3.038.06-5.45 2.503-5.388 5.456" mask="url(#prefix__h)"/>
            </g>
        </g>
        <g>
            <path fill="#848484" d="M203.832 117.111h-2.782c-1.28 0-2.316-1.039-2.316-2.32 0-1.283 1.037-2.322 2.316-2.322h.055c-.657-4.96-.566-9.978-.482-12.142.05-1.28 1.126-2.277 2.404-2.23 1.278.05 2.274 1.13 2.224 2.41-.194 5.011.124 10.18.852 13.828.136.682-.04 1.39-.48 1.927-.44.538-1.097.85-1.791.85M194.198 100.136c-.334 0-.668-.125-.925-.378l-2.278-2.233c-.522-.513-.531-1.352-.02-1.876.511-.523 1.349-.532 1.871-.02l2.277 2.233c.523.513.532 1.352.02 1.876-.258.265-.602.398-.945.398"/>
            <path fill="#848484" d="M191.018 103.076h-.027c-1.28-.015-2.304-1.066-2.29-2.348l.219-19.274c.014-1.273 1.048-2.295 2.315-2.295h.027c1.28.015 2.304 1.066 2.29 2.348l-.219 19.274c-.014 1.273-1.049 2.295-2.315 2.295"/>
            <g transform="translate(186.648 46.368)">
                <mask id="prefix__j" fill="#fff">
                    <use xlink:href="#prefix__i"/>
                </mask>
                <path fill="#12AE55" d="M.159 28.812c0 15.872 12.838 28.74 28.676 28.74 15.837 0 28.676-12.868 28.676-28.74C57.51 12.94 44.672.072 28.835.072 12.997.073.16 12.94.16 28.813" mask="url(#prefix__j)"/>
            </g>
            <path fill="#848484" d="M226.493 117.111h-2.781c-.694 0-1.351-.311-1.791-.85-.44-.537-.616-1.244-.48-1.926.493-2.47.71-5.294.921-8.025.16-2.08.326-4.231.614-6.225.183-1.269 1.357-2.148 2.624-1.965 1.265.184 2.143 1.36 1.96 2.63-.266 1.84-.418 3.82-.58 5.917-.148 1.922-.3 3.888-.548 5.802h.061c1.28 0 2.317 1.04 2.317 2.321 0 1.282-1.038 2.321-2.317 2.321M236.856 98.658c-.456 0-.9-.236-1.145-.66-.368-.633-.153-1.444.479-1.813l2.754-1.605c.632-.368 1.442-.153 1.809.48s.153 1.445-.479 1.813l-2.754 1.605c-.21.122-.438.18-.664.18"/>
            <path fill="#848484" d="M239.464 102.321c-.178 0-.359-.02-.54-.064-1.244-.298-2.012-1.55-1.714-2.797l.213-.894c1.408-5.883 1.343-10.135-.231-15.167-.383-1.223.297-2.526 1.517-2.91 1.221-.382 2.52.298 2.903 1.521 1.826 5.836 1.917 10.946.316 17.637l-.213.892c-.254 1.066-1.204 1.782-2.25 1.782"/>
            <path fill="#FFF" d="M224.478 79.224c2.293 0 4.152-1.864 4.152-4.162s-1.859-4.162-4.152-4.162-4.153 1.864-4.153 4.162 1.86 4.162 4.153 4.162"/>
            <path fill="#231F20" d="M222.892 77.393c1.284 0 2.325-1.044 2.325-2.33 0-1.288-1.041-2.332-2.325-2.332-1.284 0-2.325 1.044-2.325 2.331s1.04 2.33 2.325 2.33"/>
            <path fill="#FFF" d="M200.438 79.224c2.293 0 4.152-1.864 4.152-4.162s-1.859-4.162-4.152-4.162-4.153 1.864-4.153 4.162 1.86 4.162 4.153 4.162"/>
            <path fill="#231F20" d="M198.852 77.393c1.284 0 2.325-1.044 2.325-2.33 0-1.288-1.041-2.332-2.325-2.332-1.284 0-2.325 1.044-2.325 2.331s1.04 2.33 2.325 2.33"/>
            <mask id="prefix__l" fill="#fff">
                <use xlink:href="#prefix__k"/>
            </mask>
            <path fill="#12AE55" d="M214.332 74.487L229.753 74.487 229.753 68.997 214.332 68.997zM193.84 74.487L209.26 74.487 209.26 68.997 193.84 68.997z" mask="url(#prefix__l)"/>
            <path fill="#3D3D3D" d="M44.018 39.708c-2.277 0-3.93-1.246-4.641-2.179-.273-.358-.204-.87.153-1.143.356-.272.864-.205 1.138.15.095.122 2.234 2.774 6.003.836.4-.205.89-.047 1.095.353.205.401.047.892-.353 1.098-1.237.636-2.378.885-3.395.885M216.398 89.166c-.264 0-.522-.132-.672-.372-.017-.024-.642-.904-2.396-.904-1.877 0-2.867.948-2.908.989-.31.305-.811.304-1.119-.005-.307-.31-.31-.806-.005-1.116.059-.06 1.463-1.457 4.032-1.457 2.674 0 3.696 1.58 3.739 1.647.233.372.12.863-.25 1.096-.13.083-.277.122-.421.122" mask="url(#prefix__l)"/>
        </g>
    </g>
</svg>
