<svg xmlns="http://www.w3.org/2000/svg" width="789" height="27" viewBox="0 0 789 27">
    <g fill="#FEFEFE" fill-rule="evenodd">
        <g>
            <path d="M5.19 3.546c-.347 0-.63-.282-.63-.631V1.359c0-.348.283-.63.63-.63.349 0 .63.282.63.63v1.556c0 .349-.281.631-.63.631M5.19 9.294c-.347 0-.63-.282-.63-.63V7.106c0-.348.283-.63.63-.63.349 0 .63.282.63.63v1.556c0 .35-.281.631-.63.631M3.094 5.642H1.538c-.348 0-.63-.282-.63-.63 0-.35.282-.631.63-.631h1.556c.348 0 .63.282.63.63 0 .349-.282.63-.63.63M8.842 5.642H7.286c-.347 0-.63-.282-.63-.63 0-.35.283-.631.63-.631h1.556c.348 0 .63.282.63.63 0 .349-.281.63-.63.63" transform="translate(0 4)"/>
        </g>
        <g>
            <path d="M5.001 3.465c-.348 0-.63-.282-.63-.631V1.278c0-.348.282-.63.63-.63.348 0 .631.282.631.63v1.556c0 .349-.283.631-.63.631M5.001 9.213c-.348 0-.63-.282-.63-.631V7.026c0-.348.282-.63.63-.63.348 0 .631.282.631.63v1.556c0 .349-.283.631-.63.631M2.905 5.56H1.35c-.348 0-.63-.281-.63-.63 0-.348.282-.63.63-.63h1.556c.348 0 .63.282.63.63 0 .349-.282.63-.63.63M8.653 5.56H7.097c-.348 0-.63-.281-.63-.63 0-.348.283-.63.63-.63h1.556c.348 0 .63.282.63.63 0 .349-.281.63-.63.63" transform="translate(239 2)"/>
        </g>
        <g>
            <path d="M4.417 2.896c-.348 0-.63-.282-.63-.631V.709c0-.347.282-.63.63-.63.348 0 .63.283.63.63v1.556c0 .349-.282.63-.63.63M4.417 8.644c-.348 0-.63-.282-.63-.631V6.457c0-.347.282-.63.63-.63.348 0 .63.283.63.63v1.556c0 .349-.282.63-.63.63M2.321 4.991H.765c-.348 0-.63-.282-.63-.63 0-.349.282-.63.63-.63h1.556c.349 0 .631.281.631.63 0 .348-.282.63-.631.63M8.069 4.991H6.513c-.348 0-.63-.282-.63-.63 0-.349.282-.63.63-.63h1.556c.348 0 .631.281.631.63 0 .348-.283.63-.631.63" transform="translate(273 18)"/>
        </g>
        <g>
            <path d="M4.525 2.861c-.348 0-.63-.282-.63-.63V.675c0-.349.282-.63.63-.63.348 0 .63.282.63.63V2.23c0 .35-.282.631-.63.631M4.525 8.61c-.348 0-.63-.282-.63-.631V6.423c0-.349.282-.63.63-.63.348 0 .63.281.63.63v1.556c0 .349-.282.63-.63.63M2.429 4.957H.873c-.348 0-.631-.282-.631-.63 0-.349.283-.63.63-.63H2.43c.348 0 .63.281.63.63 0 .348-.282.63-.63.63M8.177 4.957H6.62c-.348 0-.631-.282-.631-.63 0-.349.283-.63.63-.63h1.557c.348 0 .63.281.63.63 0 .348-.282.63-.63.63" transform="translate(303 5)"/>
        </g>
        <g>
            <path d="M4.493 2.814c-.348 0-.63-.282-.63-.631V.627c0-.348.282-.63.63-.63.348 0 .63.282.63.63v1.556c0 .349-.282.63-.63.63M4.493 8.562c-.348 0-.63-.282-.63-.631V6.375c0-.348.282-.63.63-.63.348 0 .63.282.63.63V7.93c0 .349-.282.63-.63.63M2.397 4.91H.841c-.348 0-.63-.283-.63-.632 0-.348.282-.63.63-.63h1.556c.348 0 .63.282.63.63 0 .35-.282.631-.63.631M8.145 4.91H6.59c-.348 0-.63-.283-.63-.632 0-.348.282-.63.63-.63h1.556c.348 0 .63.282.63.63 0 .35-.282.631-.63.631" transform="translate(52 17)"/>
        </g>
        <g>
            <path d="M4.494 3.264c-.348 0-.63-.282-.63-.631V1.077c0-.348.282-.63.63-.63.348 0 .63.282.63.63v1.556c0 .349-.282.63-.63.63M4.494 9.012c-.348 0-.63-.282-.63-.631V6.825c0-.348.282-.63.63-.63.348 0 .63.282.63.63V8.38c0 .349-.282.63-.63.63M2.399 5.36H.843c-.348 0-.631-.283-.631-.631 0-.349.283-.63.63-.63H2.4c.348 0 .63.281.63.63 0 .348-.282.63-.63.63M8.146 5.36H6.59c-.348 0-.63-.283-.63-.631 0-.349.282-.63.63-.63h1.556c.35 0 .631.281.631.63 0 .348-.282.63-.63.63" transform="translate(94)"/>
        </g>
        <g>
            <path d="M4.955 2.814c-.348 0-.63-.282-.63-.631V.627c0-.348.282-.63.63-.63.348 0 .63.282.63.63v1.556c0 .349-.282.63-.63.63M4.955 8.562c-.348 0-.63-.282-.63-.631V6.375c0-.348.282-.63.63-.63.348 0 .63.282.63.63V7.93c0 .349-.282.63-.63.63M2.859 4.91H1.303c-.348 0-.631-.283-.631-.632 0-.348.283-.63.63-.63H2.86c.348 0 .63.282.63.63 0 .35-.282.631-.63.631M8.607 4.91H7.05c-.348 0-.631-.283-.631-.632 0-.348.283-.63.63-.63h1.557c.348 0 .63.282.63.63 0 .35-.282.631-.63.631" transform="translate(141 17)"/>
        </g>
        <g>
            <path d="M4.956 3.264c-.348 0-.63-.282-.63-.631V1.077c0-.348.282-.63.63-.63.348 0 .63.282.63.63v1.556c0 .349-.282.63-.63.63M4.956 9.012c-.348 0-.63-.282-.63-.631V6.825c0-.348.282-.63.63-.63.348 0 .63.282.63.63V8.38c0 .349-.282.63-.63.63M2.86 5.36H1.304c-.348 0-.631-.283-.631-.631 0-.349.283-.63.631-.63H2.86c.348 0 .63.281.63.63 0 .348-.282.63-.63.63M8.608 5.36H7.052c-.348 0-.63-.283-.63-.631 0-.349.282-.63.63-.63h1.556c.349 0 .63.281.63.63 0 .348-.281.63-.63.63" transform="translate(183)"/>
        </g>
        <g>
            <path d="M5.001 3.465c-.348 0-.63-.282-.63-.631V1.278c0-.348.282-.63.63-.63.348 0 .631.282.631.63v1.556c0 .349-.283.631-.63.631M5.001 9.213c-.348 0-.63-.282-.63-.631V7.026c0-.348.282-.63.63-.63.348 0 .631.282.631.63v1.556c0 .349-.283.631-.63.631M2.905 5.56H1.35c-.348 0-.63-.281-.63-.63 0-.348.282-.63.63-.63h1.556c.348 0 .63.282.63.63 0 .349-.282.63-.63.63M8.653 5.56H7.097c-.348 0-.63-.281-.63-.63 0-.348.283-.63.63-.63h1.556c.348 0 .63.282.63.63 0 .349-.281.63-.63.63" transform="translate(535 2)"/>
        </g>
        <g>
            <path d="M4.417 2.896c-.348 0-.63-.282-.63-.631V.709c0-.347.282-.63.63-.63.348 0 .63.283.63.63v1.556c0 .349-.282.63-.63.63M4.417 8.644c-.348 0-.63-.282-.63-.631V6.457c0-.347.282-.63.63-.63.348 0 .63.283.63.63v1.556c0 .349-.282.63-.63.63M2.321 4.991H.765c-.348 0-.63-.282-.63-.63 0-.349.282-.63.63-.63h1.556c.349 0 .631.281.631.63 0 .348-.282.63-.631.63M8.069 4.991H6.513c-.348 0-.63-.282-.63-.63 0-.349.282-.63.63-.63h1.556c.348 0 .631.281.631.63 0 .348-.283.63-.631.63" transform="translate(569 18)"/>
        </g>
        <g>
            <path d="M4.525 2.861c-.348 0-.63-.282-.63-.63V.675c0-.349.282-.63.63-.63.348 0 .63.282.63.63V2.23c0 .35-.282.631-.63.631M4.525 8.61c-.348 0-.63-.282-.63-.631V6.423c0-.349.282-.63.63-.63.348 0 .63.281.63.63v1.556c0 .349-.282.63-.63.63M2.429 4.957H.873c-.348 0-.631-.282-.631-.63 0-.349.283-.63.63-.63H2.43c.348 0 .63.281.63.63 0 .348-.282.63-.63.63M8.177 4.957H6.62c-.348 0-.631-.282-.631-.63 0-.349.283-.63.63-.63h1.557c.348 0 .63.281.63.63 0 .348-.282.63-.63.63" transform="translate(599 5)"/>
        </g>
        <g>
            <path d="M4.493 2.814c-.348 0-.63-.282-.63-.631V.627c0-.348.282-.63.63-.63.348 0 .63.282.63.63v1.556c0 .349-.282.63-.63.63M4.493 8.562c-.348 0-.63-.282-.63-.631V6.375c0-.348.282-.63.63-.63.348 0 .63.282.63.63V7.93c0 .349-.282.63-.63.63M2.397 4.91H.841c-.348 0-.63-.283-.63-.632 0-.348.282-.63.63-.63h1.556c.348 0 .63.282.63.63 0 .35-.282.631-.63.631M8.145 4.91H6.59c-.348 0-.63-.283-.63-.632 0-.348.282-.63.63-.63h1.556c.348 0 .63.282.63.63 0 .35-.282.631-.63.631" transform="translate(348 17)"/>
        </g>
        <g>
            <path d="M4.494 3.264c-.348 0-.63-.282-.63-.631V1.077c0-.348.282-.63.63-.63.348 0 .63.282.63.63v1.556c0 .349-.282.63-.63.63M4.494 9.012c-.348 0-.63-.282-.63-.631V6.825c0-.348.282-.63.63-.63.348 0 .63.282.63.63V8.38c0 .349-.282.63-.63.63M2.399 5.36H.843c-.348 0-.631-.283-.631-.631 0-.349.283-.63.63-.63H2.4c.348 0 .63.281.63.63 0 .348-.282.63-.63.63M8.146 5.36H6.59c-.348 0-.63-.283-.63-.631 0-.349.282-.63.63-.63h1.556c.35 0 .631.281.631.63 0 .348-.282.63-.63.63" transform="translate(390)"/>
        </g>
        <g>
            <path d="M4.955 2.814c-.348 0-.63-.282-.63-.631V.627c0-.348.282-.63.63-.63.348 0 .63.282.63.63v1.556c0 .349-.282.63-.63.63M4.955 8.562c-.348 0-.63-.282-.63-.631V6.375c0-.348.282-.63.63-.63.348 0 .63.282.63.63V7.93c0 .349-.282.63-.63.63M2.859 4.91H1.303c-.348 0-.631-.283-.631-.632 0-.348.283-.63.63-.63H2.86c.348 0 .63.282.63.63 0 .35-.282.631-.63.631M8.607 4.91H7.05c-.348 0-.631-.283-.631-.632 0-.348.283-.63.63-.63h1.557c.348 0 .63.282.63.63 0 .35-.282.631-.63.631" transform="translate(437 17)"/>
        </g>
        <g>
            <path d="M4.956 3.264c-.348 0-.63-.282-.63-.631V1.077c0-.348.282-.63.63-.63.348 0 .63.282.63.63v1.556c0 .349-.282.63-.63.63M4.956 9.012c-.348 0-.63-.282-.63-.631V6.825c0-.348.282-.63.63-.63.348 0 .63.282.63.63V8.38c0 .349-.282.63-.63.63M2.86 5.36H1.304c-.348 0-.631-.283-.631-.631 0-.349.283-.63.631-.63H2.86c.348 0 .63.281.63.63 0 .348-.282.63-.63.63M8.608 5.36H7.052c-.348 0-.63-.283-.63-.631 0-.349.282-.63.63-.63h1.556c.349 0 .63.281.63.63 0 .348-.281.63-.63.63" transform="translate(479)"/>
        </g>
        <g>
            <path d="M4.493 2.814c-.348 0-.63-.282-.63-.631V.627c0-.348.282-.63.63-.63.348 0 .63.282.63.63v1.556c0 .349-.282.63-.63.63M4.493 8.562c-.348 0-.63-.282-.63-.631V6.375c0-.348.282-.63.63-.63.348 0 .63.282.63.63V7.93c0 .349-.282.63-.63.63M2.397 4.91H.841c-.348 0-.63-.283-.63-.632 0-.348.282-.63.63-.63h1.556c.348 0 .63.282.63.63 0 .35-.282.631-.63.631M8.145 4.91H6.59c-.348 0-.63-.283-.63-.632 0-.348.282-.63.63-.63h1.556c.348 0 .63.282.63.63 0 .35-.282.631-.63.631" transform="translate(648 17)"/>
        </g>
        <g>
            <path d="M4.494 3.264c-.348 0-.63-.282-.63-.631V1.077c0-.348.282-.63.63-.63.348 0 .63.282.63.63v1.556c0 .349-.282.63-.63.63M4.494 9.012c-.348 0-.63-.282-.63-.631V6.825c0-.348.282-.63.63-.63.348 0 .63.282.63.63V8.38c0 .349-.282.63-.63.63M2.399 5.36H.843c-.348 0-.631-.283-.631-.631 0-.349.283-.63.63-.63H2.4c.348 0 .63.281.63.63 0 .348-.282.63-.63.63M8.146 5.36H6.59c-.348 0-.63-.283-.63-.631 0-.349.282-.63.63-.63h1.556c.35 0 .631.281.631.63 0 .348-.282.63-.63.63" transform="translate(690)"/>
        </g>
        <g>
            <path d="M4.955 2.814c-.348 0-.63-.282-.63-.631V.627c0-.348.282-.63.63-.63.348 0 .63.282.63.63v1.556c0 .349-.282.63-.63.63M4.955 8.562c-.348 0-.63-.282-.63-.631V6.375c0-.348.282-.63.63-.63.348 0 .63.282.63.63V7.93c0 .349-.282.63-.63.63M2.859 4.91H1.303c-.348 0-.631-.283-.631-.632 0-.348.283-.63.63-.63H2.86c.348 0 .63.282.63.63 0 .35-.282.631-.63.631M8.607 4.91H7.05c-.348 0-.631-.283-.631-.632 0-.348.283-.63.63-.63h1.557c.348 0 .63.282.63.63 0 .35-.282.631-.63.631" transform="translate(737 17)"/>
        </g>
        <g>
            <path d="M4.956 3.264c-.348 0-.63-.282-.63-.631V1.077c0-.348.282-.63.63-.63.348 0 .63.282.63.63v1.556c0 .349-.282.63-.63.63M4.956 9.012c-.348 0-.63-.282-.63-.631V6.825c0-.348.282-.63.63-.63.348 0 .63.282.63.63V8.38c0 .349-.282.63-.63.63M2.86 5.36H1.304c-.348 0-.631-.283-.631-.631 0-.349.283-.63.631-.63H2.86c.348 0 .63.281.63.63 0 .348-.282.63-.63.63M8.608 5.36H7.052c-.348 0-.63-.283-.63-.631 0-.349.282-.63.63-.63h1.556c.349 0 .63.281.63.63 0 .348-.281.63-.63.63" transform="translate(779)"/>
        </g>
    </g>
</svg>
