<svg width="141" height="136" viewBox="0 0 141 136" fill="none" xmlns="http://www.w3.org/2000/svg">
<path fill-rule="evenodd" clip-rule="evenodd" d="M59.1729 55.3371C62.7894 56.9313 66.7897 57.8243 71.0024 57.8243C75.2151 57.8243 79.2154 56.9313 82.8319 55.3371C83.8943 45.2631 90.2734 36.1656 100.008 31.8974C100.109 30.9157 100.163 29.9201 100.163 28.912C100.163 12.9444 87.1068 0 71.0024 0C54.898 0 41.8423 12.9444 41.8423 28.912C41.8423 29.9201 41.8953 30.9157 41.9969 31.8974C51.7314 36.1656 58.1105 45.2631 59.1729 55.3371Z" fill="#E44746"/>
<path fill-rule="evenodd" clip-rule="evenodd" d="M51.859 77.6495C54.5055 74.7317 56.5979 71.2353 57.8999 67.2629C59.2019 63.2896 59.5818 59.242 59.1699 55.339C49.835 51.2241 43.0804 42.3969 41.9939 31.8987C41.084 31.4995 40.1456 31.142 39.1787 30.8306C23.8624 25.896 7.41148 34.2071 2.43515 49.3936C-2.54163 64.5801 5.84047 80.8913 21.1568 85.8259C22.1236 86.1373 23.0949 86.3954 24.0675 86.6026C31.1699 78.7428 41.8673 75.5379 51.859 77.6495Z" fill="#008FFA"/>
<path fill-rule="evenodd" clip-rule="evenodd" d="M59.1709 55.3393C58.1086 45.2648 51.7294 36.1668 41.9949 31.8984C43.0809 42.3969 49.8355 51.2243 59.1709 55.3393Z" fill="#E44746"/>
<path fill-rule="evenodd" clip-rule="evenodd" d="M59.1709 55.3393C58.1086 45.2648 51.7294 36.1668 41.9949 31.8984C43.0809 42.3969 49.8355 51.2243 59.1709 55.3393Z" fill="#008FFA"/>
<path fill-rule="evenodd" clip-rule="evenodd" d="M71.0007 91.4386C69.0201 88.0412 66.3131 84.987 62.9047 82.5318C59.4963 80.0766 55.7309 78.4676 51.8603 77.6497C45.0286 85.1816 34.4745 88.8231 24.0688 86.6029C23.4047 87.3383 22.7721 88.1129 22.1745 88.9287C12.7081 101.847 15.5969 119.929 28.625 129.314C41.6544 138.7 59.8902 135.836 69.3557 122.918C69.9532 122.102 70.5008 121.266 71.0007 120.413C65.6564 111.286 65.8877 100.208 71.0007 91.4386Z" fill="#8C69CA"/>
<path fill-rule="evenodd" clip-rule="evenodd" d="M51.8611 77.6493C41.8694 75.538 31.172 78.7425 24.0696 86.6014C34.4752 88.8212 45.0294 85.1802 51.8611 77.6493Z" fill="#008FFA"/>
<path fill-rule="evenodd" clip-rule="evenodd" d="M51.8611 77.6493C41.8694 75.538 31.172 78.7425 24.0696 86.6014C34.4752 88.8212 45.0294 85.1802 51.8611 77.6493Z" fill="#8C69CA"/>
<path fill-rule="evenodd" clip-rule="evenodd" d="M90.1431 77.6497C86.2725 78.4676 82.5067 80.0766 79.0987 82.5318C75.6903 84.9874 72.9833 88.0412 71.0027 91.4385C76.1153 100.208 76.347 111.286 71.0027 120.412C71.5021 121.266 72.0497 122.102 72.6473 122.918C82.1132 135.836 100.349 138.7 113.378 129.314C126.406 119.929 129.295 101.847 119.829 88.9286C119.231 88.1128 118.598 87.3383 117.935 86.6029C107.529 88.8231 96.9748 85.1816 90.1431 77.6497Z" fill="#63C355"/>
<path fill-rule="evenodd" clip-rule="evenodd" d="M71.0035 91.4391C65.8905 100.208 65.6592 111.286 71.0035 120.413C76.3479 111.286 76.1166 100.208 71.0035 91.4391Z" fill="#8C69CA"/>
<path fill-rule="evenodd" clip-rule="evenodd" d="M71.0035 91.4391C65.8905 100.208 65.6592 111.286 71.0035 120.413C76.3479 111.286 76.1166 100.208 71.0035 91.4391Z" fill="#63C355"/>
<path fill-rule="evenodd" clip-rule="evenodd" d="M139.565 49.3936C134.589 34.2071 118.138 25.896 102.821 30.8306C101.855 31.1416 100.916 31.4995 100.006 31.8987C98.9198 42.3969 92.1652 51.2241 82.8298 55.339C82.4184 59.242 82.7983 63.2896 84.1003 67.2629C85.4019 71.2353 87.4947 74.7317 90.1412 77.6495C100.132 75.5379 110.83 78.7424 117.932 86.6026C118.905 86.3954 119.877 86.1373 120.843 85.8259C136.16 80.8913 144.541 64.5801 139.565 49.3936Z" fill="#FF9900"/>
<path fill-rule="evenodd" clip-rule="evenodd" d="M82.832 55.3393C92.1675 51.2243 98.9221 42.3969 100.008 31.8984C90.2736 36.1668 83.8944 45.2648 82.832 55.3393Z" fill="#E44746"/>
<path fill-rule="evenodd" clip-rule="evenodd" d="M82.832 55.3393C92.1675 51.2243 98.9221 42.3969 100.008 31.8984C90.2736 36.1668 83.8944 45.2648 82.832 55.3393Z" fill="#FF9900"/>
<path fill-rule="evenodd" clip-rule="evenodd" d="M90.1406 77.6493C96.9723 85.1802 107.526 88.8212 117.932 86.6014C110.83 78.7425 100.132 75.538 90.1406 77.6493Z" fill="#FF9900"/>
<path fill-rule="evenodd" clip-rule="evenodd" d="M90.1406 77.6493C96.9723 85.1802 107.526 88.8212 117.932 86.6014C110.83 78.7425 100.132 75.538 90.1406 77.6493Z" fill="#FF9900"/>
<path fill-rule="evenodd" clip-rule="evenodd" d="M40.7324 74.0985C42.4168 90.1757 56.9261 101.855 73.1405 100.185C89.3544 98.5147 101.133 84.1277 99.449 68.0509C97.765 51.9737 83.2552 40.2947 67.0409 41.9645C50.827 43.6347 39.0479 58.0213 40.7324 74.0985Z" fill="#008FFA"/>
<mask id="mask0_2219_6726" style="mask-type:alpha" maskUnits="userSpaceOnUse" x="33" y="37" width="76" height="76">
<path fill-rule="evenodd" clip-rule="evenodd" d="M33.6667 37.3334H108.634V112.02H33.6667V37.3334Z" fill="white"/>
</mask>
<g mask="url(#mask0_2219_6726)">
<path fill-rule="evenodd" clip-rule="evenodd" d="M33.6667 73.9642C33.6667 53.0952 50.4216 37.3334 71.145 37.3334C91.8796 37.3334 108.634 52.9496 108.634 73.8298V105.63C108.634 109.322 106.077 112.021 102.109 112.021C97.9872 112.021 95.0081 109.322 95.5718 105.63L97.5616 93.2764H95.7136C91.8796 102.796 83.9315 110.602 70.1557 110.602C50.1342 110.602 33.6667 94.8443 33.6667 73.9642ZM95.8594 73.9641C95.8594 59.9084 85.2084 49.2611 71.1452 49.2611C57.0931 49.2611 46.4421 59.9084 46.4421 73.9641C46.4421 88.0273 57.0931 98.6746 71.1452 98.6746C85.2084 98.6746 95.8594 88.0273 95.8594 73.9641Z" fill="white"/>
</g>
</svg>
