<svg width="33" height="12" viewBox="0 0 33 12" fill="none" xmlns="http://www.w3.org/2000/svg">
<path d="M17.7632 10.0997C17.4247 10.0997 17.146 10.0278 16.9369 9.87362C16.7278 9.71946 16.5686 9.5139 16.469 9.24669L14.0498 2.64842C14.0199 2.57648 14 2.48398 14 2.3812C14 2.20648 14.0498 2.06259 14.1593 1.94954C14.2688 1.83648 14.3982 1.74399 14.5476 1.68232C14.7068 1.63093 14.8562 1.6001 14.9956 1.6001C15.354 1.6001 15.6029 1.76454 15.7124 2.1037L17.8031 8.05448L19.9236 2.1037C20.053 1.76454 20.282 1.6001 20.6006 1.6001C20.8196 1.6001 21.0386 1.67204 21.2477 1.80565C21.4568 1.93926 21.5563 2.13454 21.5563 2.37092C21.5563 2.46342 21.5364 2.55592 21.4966 2.64842L19.0475 9.24669C18.9479 9.5139 18.7887 9.72974 18.5796 9.87362C18.3805 10.0278 18.1017 10.0997 17.7632 10.0997Z" fill="white"/>
<path d="M23.3482 10.0997C23.0395 10.0997 22.8106 10.0278 22.6712 9.87362C22.5218 9.71946 22.4521 9.54474 22.4521 9.33918V2.35037C22.4521 2.14481 22.5218 1.97009 22.6712 1.81593C22.8106 1.67204 23.0395 1.6001 23.3482 1.6001C23.6568 1.6001 23.8858 1.67204 24.0251 1.82621C24.1745 1.98037 24.2442 2.15509 24.2442 2.36065V9.34946C24.2442 9.55502 24.1745 9.72974 24.0251 9.8839C23.8858 10.0278 23.6568 10.0997 23.3482 10.0997Z" fill="white"/>
<path d="M26.7235 10.1C26.4248 10.1 26.2058 10.0281 26.0564 9.8739C25.9071 9.71973 25.8374 9.54501 25.8374 9.33946V2.63842C25.8374 2.34036 25.917 2.10398 26.0763 1.93954C26.2356 1.77509 26.4547 1.69287 26.7533 1.69287H29.0232C29.5708 1.69287 30.0685 1.80593 30.5165 2.03203C30.9745 2.25814 31.3329 2.58703 31.6017 3.01869C31.8705 3.45035 31.9999 3.97451 31.9999 4.59117C31.9999 5.20783 31.8705 5.74227 31.6017 6.17394C31.3329 6.6056 30.9745 6.94476 30.5165 7.17087C30.0586 7.39698 29.5608 7.51003 29.0232 7.51003H27.6195V9.32918C27.6195 9.53473 27.5498 9.70945 27.4004 9.86362C27.2411 10.0281 27.0221 10.1 26.7235 10.1ZM28.8838 3.32702H27.6095V5.89644H28.8838C29.282 5.89644 29.5907 5.78338 29.8396 5.55728C30.0785 5.33117 30.198 5.01256 30.198 4.61173C30.198 4.20062 30.0785 3.89229 29.8396 3.66618C29.6006 3.4298 29.282 3.32702 28.8838 3.32702Z" fill="white"/>
<path d="M5.31787 0.995345C5.53267 0.334887 6.46733 0.334884 6.68213 0.995342L7.70913 4.15317H11.0313C11.7263 4.15317 12.0151 5.04226 11.4528 5.45044L8.76544 7.40108L9.79215 10.558C10.007 11.2185 9.25081 11.768 8.68859 11.3599L6 9.40839L3.31141 11.3599C2.74919 11.768 1.99302 11.2185 2.20785 10.558L3.23456 7.40108L0.547219 5.45044C-0.0151292 5.04226 0.2737 4.15317 0.968651 4.15317H4.29086L5.31787 0.995345Z" fill="white"/>
</svg>
